<?xml version="1.0" encoding="utf-8"?>
<!-- Generator: Adobe Illustrator 27.0.0, SVG Export Plug-In . SVG Version: 6.00 Build 0)  -->
<svg version="1.2" baseProfile="tiny" id="Calque_1"
	 xmlns="http://www.w3.org/2000/svg" xmlns:xlink="http://www.w3.org/1999/xlink" x="0px" y="0px" viewBox="0 0 519 139"
	 overflow="visible" xml:space="preserve">
<text transform="matrix(1 0 0 1 151.004 77.0695)" fill="#FFFFFF" font-family="'IBMPlexSans-Light'" font-size="54.6022px">T</text>
<text transform="matrix(1 0 0 1 178.4694 77.0695)" fill="#FFFFFF" font-family="'IBMPlexSans-Light'" font-size="54.6022px">e</text>
<text transform="matrix(1 0 0 1 208.1183 77.0695)" fill="#FFFFFF" font-family="'IBMPlexSans-Light'" font-size="54.6022px">l</text>
<text transform="matrix(1 0 0 1 222.5329 77.0695)" fill="#FFFFFF" font-family="'IBMPlexSans-Light'" font-size="54.6022px">e</text>
<text transform="matrix(1 0 0 1 252.1818 77.0695)" fill="#FFFFFF" font-family="'IBMPlexSans-Light'" font-size="54.6022px">p</text>
<text transform="matrix(1 0 0 1 283.5231 77.0695)" fill="#FFFFFF" font-family="'IBMPlexSans-Light'" font-size="54.6022px">r</text>
<text transform="matrix(1 0 0 1 302.8522 77.0695)" fill="#FFFFFF" font-family="'IBMPlexSans-Light'" font-size="54.6022px">o</text>
<text transform="matrix(1 0 0 1 332.8829 77.0695)" fill="#FFFFFF" font-family="'IBMPlexSans-Light'" font-size="54.6022px">m</text>
<text transform="matrix(1 0 0 1 380.714 77.0695)" fill="#FFFFFF" font-family="'IBMPlexSans-Light'" font-size="54.6022px">p</text>
<text transform="matrix(1 0 0 1 411.837 77.0695)" fill="#FFFFFF" font-family="'IBMPlexSans-Light'" font-size="54.6022px">t</text>
<text transform="matrix(1 0 0 1 429.9093 77.0695)" fill="#FFFFFF" font-family="'IBMPlexSans-Light'" font-size="54.6022px">e</text>
<text transform="matrix(1 0 0 1 459.5587 77.0695)" fill="#FFFFFF" font-family="'IBMPlexSans-Light'" font-size="54.6022px">r</text>
<path fill="#EF4444" d="M37.9,41.1c3.1,0,5.8,0.7,8.3,2.1c2.5,1.4,4.3,3.2,5.7,5.6c1.4,2.4,2.1,5.1,2.1,8.1S53.4,62.6,52,65
	c-1.4,2.4-3.3,4.3-5.8,5.6c-2.5,1.4-5.2,2.1-8.3,2.1c-3.1,0-5.8-0.7-8.3-2.1c-2.5-1.4-4.3-3.2-5.7-5.6c-1.4-2.4-2.1-5.1-2.1-8.1
	s0.7-5.7,2.1-8.1c1.4-2.4,3.3-4.3,5.8-5.6C32.1,41.8,34.8,41.1,37.9,41.1 M37.9,37.1c-3.8,0-7.2,0.9-10.3,2.6
	c-3.1,1.7-5.5,4.1-7.2,7.1c-1.8,3-2.6,6.4-2.6,10.1c0,3.7,0.9,7.1,2.6,10.1c1.8,3,4.2,5.4,7.2,7.1c3.1,1.7,6.5,2.6,10.3,2.6
	c3.8,0,7.2-0.9,10.3-2.6c3.1-1.7,5.5-4.1,7.2-7.1c1.8-3,2.6-6.4,2.6-10.1c0-3.7-0.9-7.1-2.6-10.1c-1.8-3-4.2-5.4-7.2-7.1
	C45.1,37.9,41.7,37.1,37.9,37.1L37.9,37.1z"/>
<path fill="#EF4444" d="M109,41.1c3.1,0,5.8,0.7,8.3,2.1c2.5,1.4,4.3,3.2,5.7,5.6c1.4,2.4,2.1,5.1,2.1,8.1s-0.7,5.7-2.1,8.1
	c-1.4,2.4-3.3,4.3-5.8,5.6c-2.5,1.4-5.2,2.1-8.3,2.1c-3.1,0-5.8-0.7-8.3-2.1c-2.5-1.4-4.3-3.2-5.7-5.6c-1.4-2.4-2.1-5.1-2.1-8.1
	s0.7-5.7,2.1-8.1c1.4-2.4,3.3-4.3,5.8-5.6C103.1,41.8,105.9,41.1,109,41.1 M109,37.1c-3.8,0-7.2,0.9-10.3,2.6
	c-3.1,1.7-5.5,4.1-7.2,7.1c-1.8,3-2.6,6.4-2.6,10.1c0,3.7,0.9,7.1,2.6,10.1c1.8,3,4.2,5.4,7.2,7.1c3.1,1.7,6.5,2.6,10.3,2.6
	c3.8,0,7.2-0.9,10.3-2.6c3.1-1.7,5.5-4.1,7.2-7.1c1.8-3,2.6-6.4,2.6-10.1c0-3.7-0.9-7.1-2.6-10.1c-1.8-3-4.2-5.4-7.2-7.1
	C116.2,37.9,112.8,37.1,109,37.1L109,37.1z"/>
<path fill="#EF4444" d="M29.9,53.3c-0.7,0-1.3,0.2-1.9,0.5c-0.6,0.3-1,0.7-1.3,1.3c-0.3,0.5-0.5,1.2-0.5,1.8s0.2,1.3,0.5,1.8
	c0.3,0.5,0.8,1,1.3,1.3c0.6,0.3,1.2,0.5,1.9,0.5c0.7,0,1.3-0.2,1.9-0.5c0.6-0.3,1-0.7,1.3-1.3c0.3-0.5,0.5-1.2,0.5-1.8
	s-0.2-1.3-0.5-1.8c-0.3-0.5-0.8-1-1.3-1.3C31.2,53.5,30.6,53.3,29.9,53.3L29.9,53.3z"/>
<path fill="#EF4444" d="M101,53.3c-0.7,0-1.3,0.2-1.9,0.5c-0.6,0.3-1,0.7-1.3,1.3c-0.3,0.5-0.5,1.2-0.5,1.8s0.2,1.3,0.5,1.8
	c0.3,0.5,0.8,1,1.3,1.3c0.6,0.3,1.2,0.5,1.9,0.5c0.7,0,1.3-0.2,1.9-0.5c0.6-0.3,1-0.7,1.3-1.3c0.3-0.5,0.5-1.2,0.5-1.8
	s-0.2-1.3-0.5-1.8c-0.3-0.5-0.8-1-1.3-1.3C102.3,53.5,101.7,53.3,101,53.3L101,53.3z"/>
<path fill="none" stroke="#EF4444" stroke-width="4" stroke-miterlimit="10" d="M73.4,26.9v59 M45.2,26.9H100"/>
<path fill="#EF4444" d="M42.2,89.6v4.8c9.1,5.6,19.8,8.9,31.3,8.9c11.5,0,22.2-3.3,31.3-8.9v-4.8c-8.9,6.1-19.7,9.6-31.3,9.6
	C61.9,99.2,51.1,95.7,42.2,89.6z"/>
</svg>
