<svg xmlns="http://www.w3.org/2000/svg" xml:space="preserve" baseProfile="tiny" overflow="visible" version="1.2" viewBox="0 0 707 139"><path fill="#EF4444" d="M37.9 41.1c3.1 0 5.8.7 8.3 2.1 2.5 1.4 4.3 3.2 5.7 5.6 1.4 2.4 2.1 5.1 2.1 8.1s-.6 5.7-2 8.1-3.3 4.3-5.8 5.6c-2.5 1.4-5.2 2.1-8.3 2.1s-5.8-.7-8.3-2.1-4.3-3.2-5.7-5.6c-1.4-2.4-2.1-5.1-2.1-8.1s.7-5.7 2.1-8.1c1.4-2.4 3.3-4.3 5.8-5.6 2.4-1.4 5.1-2.1 8.2-2.1m0-4c-3.8 0-7.2.9-10.3 2.6-3.1 1.7-5.5 4.1-7.2 7.1-1.8 3-2.6 6.4-2.6 10.1 0 3.7.9 7.1 2.6 10.1 1.8 3 4.2 5.4 7.2 7.1 3.1 1.7 6.5 2.6 10.3 2.6s7.2-.9 10.3-2.6 5.5-4.1 7.2-7.1c1.8-3 2.6-6.4 2.6-10.1 0-3.7-.9-7.1-2.6-10.1-1.8-3-4.2-5.4-7.2-7.1-3.1-1.8-6.5-2.6-10.3-2.6zM109 41.1c3.1 0 5.8.7 8.3 2.1 2.5 1.4 4.3 3.2 5.7 5.6 1.4 2.4 2.1 5.1 2.1 8.1s-.7 5.7-2.1 8.1c-1.4 2.4-3.3 4.3-5.8 5.6-2.5 1.4-5.2 2.1-8.3 2.1-3.1 0-5.8-.7-8.3-2.1s-4.3-3.2-5.7-5.6c-1.4-2.4-2.1-5.1-2.1-8.1s.7-5.7 2.1-8.1c1.4-2.4 3.3-4.3 5.8-5.6 2.4-1.4 5.2-2.1 8.3-2.1m0-4c-3.8 0-7.2.9-10.3 2.6-3.1 1.7-5.5 4.1-7.2 7.1-1.8 3-2.6 6.4-2.6 10.1 0 3.7.9 7.1 2.6 10.1 1.8 3 4.2 5.4 7.2 7.1 3.1 1.7 6.5 2.6 10.3 2.6s7.2-.9 10.3-2.6c3.1-1.7 5.5-4.1 7.2-7.1 1.8-3 2.6-6.4 2.6-10.1 0-3.7-.9-7.1-2.6-10.1-1.8-3-4.2-5.4-7.2-7.1-3.1-1.8-6.5-2.6-10.3-2.6z"/><path fill="#EF4444" d="M29.9 53.3c-.7 0-1.3.2-1.9.5s-1 .7-1.3 1.3c-.3.5-.5 1.2-.5 1.8s.2 1.3.5 1.8.8 1 1.3 1.3c.6.3 1.2.5 1.9.5s1.3-.2 1.9-.5c.6-.3 1-.7 1.3-1.3.3-.5.5-1.2.5-1.8s-.2-1.3-.5-1.8-.8-1-1.3-1.3c-.6-.3-1.2-.5-1.9-.5zM101 53.3c-.7 0-1.3.2-1.9.5s-1 .7-1.3 1.3c-.3.5-.5 1.2-.5 1.8s.2 1.3.5 1.8.8 1 1.3 1.3c.6.3 1.2.5 1.9.5s1.3-.2 1.9-.5 1-.7 1.3-1.3c.3-.5.5-1.2.5-1.8s-.2-1.3-.5-1.8-.8-1-1.3-1.3c-.6-.3-1.2-.5-1.9-.5z"/><path fill="none" stroke="#EF4444" stroke-miterlimit="10" stroke-width="4" d="M73.4 26.9v59m-28.2-59H100"/><path fill="#EF4444" d="M42.2 89.6v4.8c9.1 5.6 19.8 8.9 31.3 8.9s22.2-3.3 31.3-8.9v-4.8c-8.9 6.1-19.7 9.6-31.3 9.6s-22.4-3.5-31.3-9.6z"/><text fill="#FCFCFC" font-family="'IBMPlexSans-Light'" font-size="51.947" transform="translate(149.107 76.275)">O</text><text fill="#FCFCFC" font-family="'IBMPlexSans-Light'" font-size="51.947" transform="translate(185.314 76.275)">m</text><text fill="#FCFCFC" font-family="'IBMPlexSans-Light'" font-size="51.947" transform="translate(230.82 76.275)">n</text><text fill="#FCFCFC" font-family="'IBMPlexSans-Light'" font-size="51.947" transform="translate(260.065 76.275)">i</text><text fill="#FCFCFC" font-family="'IBMPlexSans-Light'" font-size="51.947" transform="translate(272.688 76.275)"> </text><text fill="#FCFCFC" font-family="'IBMPlexSans-Light'" font-size="51.947" transform="translate(284.947 76.275)">T</text><text fill="#FCFCFC" font-family="'IBMPlexSans-Light'" font-size="51.947" transform="translate(311.076 76.275)">e</text><text fill="#FCFCFC" font-family="'IBMPlexSans-Light'" font-size="51.947" transform="translate(338.713 76.275)">x</text><text fill="#FCFCFC" font-family="'IBMPlexSans-Light'" font-size="51.947" transform="translate(364.323 76.275)">t</text><text fill="#FCFCFC" font-family="'IBMPlexSans-Light'" font-size="51.947" transform="translate(381.725 76.275)"> </text><text fill="#FCFCFC" font-family="'IBMPlexSans-Light'" font-size="51.947" transform="translate(393.983 76.275)">O</text><text fill="#FCFCFC" font-family="'IBMPlexSans-Light'" font-size="51.947" transform="translate(430.19 76.275)">r</text><text fill="#FCFCFC" font-family="'IBMPlexSans-Light'" font-size="51.947" transform="translate(448.58 76.275)">c</text><text fill="#FCFCFC" font-family="'IBMPlexSans-Light'" font-size="51.947" transform="translate(474.345 76.275)">h</text><text fill="#FCFCFC" font-family="'IBMPlexSans-Light'" font-size="51.947" transform="translate(503.59 76.275)">e</text><text fill="#FCFCFC" font-family="'IBMPlexSans-Light'" font-size="51.947" transform="translate(531.798 76.275)">s</text><text fill="#FCFCFC" font-family="'IBMPlexSans-Light'" font-size="51.947" transform="translate(556.368 76.275)">t</text><text fill="#FCFCFC" font-family="'IBMPlexSans-Light'" font-size="51.947" transform="translate(573.77 76.275)">r</text><text fill="#FCFCFC" font-family="'IBMPlexSans-Light'" font-size="51.947" transform="translate(592.21 76.275)">a</text><text fill="#FCFCFC" font-family="'IBMPlexSans-Light'" font-size="51.947" transform="translate(619.69 76.275)">t</text><text fill="#FCFCFC" font-family="'IBMPlexSans-Light'" font-size="51.947" transform="translate(636.885 76.275)">o</text><text fill="#FCFCFC" font-family="'IBMPlexSans-Light'" font-size="51.947" transform="translate(665.455 76.275)">r</text></svg>