<?xml version="1.0" encoding="utf-8"?>
<!-- Generator: Adobe Illustrator 27.0.0, SVG Export Plug-In . SVG Version: 6.00 Build 0)  -->
<svg version="1.1" id="Calque_1" xmlns="http://www.w3.org/2000/svg" xmlns:xlink="http://www.w3.org/1999/xlink" x="0px" y="0px"
	 viewBox="0 0 564.9 79.9" style="enable-background:new 0 0 564.9 79.9;" xml:space="preserve">
<style type="text/css">
	.st0{fill:#FFFFFF;}
	.st1{fill:#FFFFFF;stroke:#FFFFFF;stroke-width:4;stroke-miterlimit:10;}
	.st2{font-family:'IBMPlexSans-Light';}
	.st3{font-size:65.5943px;}
	.st4{letter-spacing:-1;}
</style>
<path class="st0" d="M20.1,17.7c3.1,0,5.8,0.7,8.3,2.1c2.5,1.4,4.3,3.2,5.7,5.6c1.4,2.4,2.1,5.1,2.1,8.1s-0.6,5.7-2,8.1
	c-1.4,2.4-3.3,4.3-5.8,5.6c-2.5,1.4-5.2,2.1-8.3,2.1s-5.8-0.7-8.3-2.1S7.5,44,6.1,41.6C4.7,39.2,4,36.5,4,33.5s0.7-5.7,2.1-8.1
	c1.4-2.4,3.3-4.3,5.8-5.6C14.3,18.4,17,17.7,20.1,17.7 M20.1,13.7c-3.8,0-7.2,0.9-10.3,2.6c-3.1,1.7-5.5,4.1-7.2,7.1
	C0.8,26.4,0,29.8,0,33.5c0,3.7,0.9,7.1,2.6,10.1c1.8,3,4.2,5.4,7.2,7.1c3.1,1.7,6.5,2.6,10.3,2.6s7.2-0.9,10.3-2.6s5.5-4.1,7.2-7.1
	c1.8-3,2.6-6.4,2.6-10.1c0-3.7-0.9-7.1-2.6-10.1c-1.8-3-4.2-5.4-7.2-7.1C27.3,14.5,23.9,13.7,20.1,13.7z M91.2,17.7
	c3.1,0,5.8,0.7,8.3,2.1c2.5,1.4,4.3,3.2,5.7,5.6c1.4,2.4,2.1,5.1,2.1,8.1s-0.7,5.7-2.1,8.1c-1.4,2.4-3.3,4.3-5.8,5.6
	c-2.5,1.4-5.2,2.1-8.3,2.1c-3.1,0-5.8-0.7-8.3-2.1s-4.3-3.2-5.7-5.6c-1.4-2.4-2.1-5.1-2.1-8.1s0.7-5.7,2.1-8.1
	c1.4-2.4,3.3-4.3,5.8-5.6C85.3,18.4,88.1,17.7,91.2,17.7 M91.2,13.7c-3.8,0-7.2,0.9-10.3,2.6c-3.1,1.7-5.5,4.1-7.2,7.1
	c-1.8,3-2.6,6.4-2.6,10.1c0,3.7,0.9,7.1,2.6,10.1c1.8,3,4.2,5.4,7.2,7.1c3.1,1.7,6.5,2.6,10.3,2.6s7.2-0.9,10.3-2.6
	c3.1-1.7,5.5-4.1,7.2-7.1c1.8-3,2.6-6.4,2.6-10.1c0-3.7-0.9-7.1-2.6-10.1c-1.8-3-4.2-5.4-7.2-7.1C98.4,14.5,95,13.7,91.2,13.7z"/>
<path class="st0" d="M12.1,29.9c-0.7,0-1.3,0.2-1.9,0.5s-1,0.7-1.3,1.3c-0.3,0.5-0.5,1.2-0.5,1.8s0.2,1.3,0.5,1.8s0.8,1,1.3,1.3
	c0.6,0.3,1.2,0.5,1.9,0.5s1.3-0.2,1.9-0.5c0.6-0.3,1-0.7,1.3-1.3c0.3-0.5,0.5-1.2,0.5-1.8s-0.2-1.3-0.5-1.8s-0.8-1-1.3-1.3
	C13.4,30.1,12.8,29.9,12.1,29.9z M83.2,29.9c-0.7,0-1.3,0.2-1.9,0.5s-1,0.7-1.3,1.3c-0.3,0.5-0.5,1.2-0.5,1.8s0.2,1.3,0.5,1.8
	s0.8,1,1.3,1.3c0.6,0.3,1.2,0.5,1.9,0.5s1.3-0.2,1.9-0.5s1-0.7,1.3-1.3c0.3-0.5,0.5-1.2,0.5-1.8s-0.2-1.3-0.5-1.8s-0.8-1-1.3-1.3
	C84.5,30.1,83.9,29.9,83.2,29.9z"/>
<path class="st1" d="M55.6,3.5v59 M27.4,3.5h54.8"/>
<path class="st0" d="M24.4,66.2V71c9.1,5.6,19.8,8.9,31.3,8.9S77.9,76.6,87,71v-4.8c-8.9,6.1-19.7,9.6-31.3,9.6S33.3,72.3,24.4,66.2
	z"/>
<text transform="matrix(0.955 0 0 1 126.6761 55.6895)" class="st0 st2 st3 st4">text orchestrator</text>
</svg>
